<svg width="16" height="16" viewBox="0 0 16 16" fill="none" xmlns="http://www.w3.org/2000/svg">
<path d="M8.42875 3.25725L9.76117 1.03654L13.1965 1.46595L14.5 3.63849V6.32062L8.01451 14.1959L1.93879 6.2507L1.05635 4.04458L2.34556 1.89588L5.35445 0.606363L7.61589 3.32009L8.06656 3.86089L8.42875 3.25725Z" fill="white" stroke="white"/>
<path d="M7.90002 3.0948C6.69981 -2.52108 -2.59119 1.90389 1.76037 7.60175C6.11193 13.2996 8.40002 15.4908 8.40002 15.4908" stroke="white"/>
<path d="M7.89415 3.0948C9.09435 -2.52108 18.7304 1.90389 14.3789 7.60175C10.0273 13.2996 7.70001 15.5 7.70001 15.5" stroke="white"/>
<path d="M7.39099 2.70772L8.4043 2.70777L8.38337 3.24099H7.39099V2.70772Z" fill="white"/>
</svg>
